HIERARCHY
ROOT root
{
  OFFSET -63.9245 92.6846 28.11
  CHANNELS 6 Xposition Yposition Zposition Zrotation Xrotation Yrotation
  JOINT rfemur
  {
    OFFSET -6.87808 -8.58224 4.63091
    CHANNELS 6 Xposition Yposition Zposition Zrotation Xrotation Yrotation
    JOINT rtibia
    {
      OFFSET 1.05643e-005 -39.9586 0
      CHANNELS 6 Xposition Yposition Zposition Zrotation Xrotation Yrotation
      JOINT rfoot
      {
        OFFSET 0 -32.7363 0
        CHANNELS 6 Xposition Yposition Zposition Zrotation Xrotation Yrotation
        JOINT rtoes
        {
          OFFSET 0 -11.385 -7.56517
          CHANNELS 6 Xposition Yposition Zposition Zrotation Xrotation Yrotation
          End Site
          {
            OFFSET 0 -6.46114 0
          }
        }
      }
    }
  }
  JOINT lfemur
  {
    OFFSET 6.18079 -8.58223 4.6309
    CHANNELS 6 Xposition Yposition Zposition Zrotation Xrotation Yrotation
    JOINT ltibia
    {
      OFFSET -1.0381e-005 -39.2652 0
      CHANNELS 6 Xposition Yposition Zposition Zrotation Xrotation Yrotation
      JOINT lfoot
      {
        OFFSET -0.00334357 -31.3814 0
        CHANNELS 6 Xposition Yposition Zposition Zrotation Xrotation Yrotation
        JOINT ltoes
        {
          OFFSET 0 -9.94555 -8.16007
          CHANNELS 6 Xposition Yposition Zposition Zrotation Xrotation Yrotation
          End Site
          {
            OFFSET 0 -5.95839 0
          }
        }
      }
    }
  }
}
MOTION
Frames:	26
Frame Time:	0.00833333
-63.9245 92.6846 28.11 -9.42451 -2.56131 93.5551 -6.87808 -8.58224 4.63091 -1.7726 -13.7478 -14.8377 1.05643e-005 -39.9586 0 -0 25.4162 0 8.65485e-006 -32.7363 0 150.36 -69.2681 148.683 2.3106e-006 -11.385 -7.56517 0 6.44062e-014 -0 6.18079 -8.58223 4.6309 7.064 -17.5427 15.4604 -1.0381e-005 -39.2652 0 -0 28.0666 0 -0.00334357 -31.3814 0 -126.724 -70.0658 -125.043 -2.72415e-008 -9.94555 -8.16007 0 6.36111e-015 -0 
-63.9205 92.6846 28.11 -9.45926 -2.52934 93.5198 -6.87808 -8.58224 4.63091 -1.80448 -13.7688 -14.8605 1.05643e-005 -39.9586 0 -0 25.4452 0 8.65485e-006 -32.7363 0 150.293 -69.2313 148.608 2.3106e-006 -11.385 -7.56517 0 6.44062e-014 -0 6.18079 -8.58223 4.6309 7.02185 -17.5267 15.3737 -1.0381e-005 -39.2652 0 -0 28.0375 0 -0.00334357 -31.3814 0 -126.83 -70.1608 -125.163 -2.72415e-008 -9.94555 -8.16007 0 6.36111e-015 -0 
-63.9104 92.6846 28.11 -9.46534 -2.52305 93.4805 -6.87808 -8.58224 4.63091 -1.83749 -13.7903 -14.8826 1.05643e-005 -39.9586 0 -0 25.4757 0 8.65485e-006 -32.7363 0 150.231 -69.194 148.538 2.3106e-006 -11.385 -7.56517 0 6.44062e-014 -0 6.18079 -8.58223 4.6309 6.97716 -17.5093 15.2795 -1.0381e-005 -39.2652 0 -0 28.0064 0 -0.00334357 -31.3814 0 -126.94 -70.2627 -125.289 -2.72415e-008 -9.94555 -8.16007 0 6.36111e-015 -0 
-63.907 92.6846 28.11 -9.47632 -2.51082 93.4527 -6.87808 -8.58224 4.63091 -1.86831 -13.8108 -14.9061 1.05643e-005 -39.9586 0 -0 25.5032 0 8.65485e-006 -32.7363 0 150.16 -69.1575 148.459 2.3106e-006 -11.385 -7.56517 0 6.44062e-014 -0 6.18079 -8.58223 4.6309 6.93772 -17.4945 15.2004 -1.0381e-005 -39.2652 0 -0 27.9792 0 -0.00334357 -31.3814 0 -127.044 -70.3507 -125.405 -2.72415e-008 -9.94555 -8.16007 0 6.36111e-015 -0 
-63.9194 92.6846 28.11 -9.4573 -2.47107 93.4623 -6.87808 -8.58224 4.63091 -1.89365 -13.8286 -14.9332 1.05643e-005 -39.9586 0 -0 25.5231 0 8.65485e-006 -32.7363 0 150.069 -69.123 148.359 2.3106e-006 -11.385 -7.56517 0 6.44062e-014 -0 6.18079 -8.58223 4.6309 6.91127 -17.4861 15.159 -1.0381e-005 -39.2652 0 -0 27.9617 0 -0.00334357 -31.3814 0 -127.129 -70.4044 -125.498 -2.72415e-008 -9.94555 -8.16007 0 6.36111e-015 -0 
-63.9137 92.6846 28.11 -9.44801 -2.45904 93.4467 -6.87808 -8.58224 4.63091 -1.91201 -13.8442 -14.9672 1.05643e-005 -39.9586 0 -0 25.5323 0 8.65485e-006 -32.7363 0 149.941 -69.0902 148.221 2.3106e-006 -11.385 -7.56517 0 6.44062e-014 -0 6.18079 -8.58223 4.6309 6.90356 -17.489 15.1759 -1.0381e-005 -39.2652 0 -0 27.9585 0 -0.00334357 -31.3814 0 -127.185 -70.4062 -125.554 -2.72415e-008 -9.94555 -8.16007 0 6.36111e-015 -0 
-63.9058 92.6846 28.11 -9.45917 -2.46382 93.4319 -6.87808 -8.58224 4.63091 -1.92536 -13.8582 -15.0061 1.05643e-005 -39.9586 0 -0 25.5338 0 8.65485e-006 -32.7363 0 149.787 -69.0586 148.057 2.3106e-006 -11.385 -7.56517 0 6.44062e-014 -0 6.18079 -8.58223 4.6309 6.90921 -17.4999 15.234 -1.0381e-005 -39.2652 0 -0 27.9655 0 -0.00334357 -31.3814 0 -127.221 -70.3711 -125.583 -2.72415e-008 -9.94555 -8.16007 0 6.36111e-015 -0 
-63.9002 92.6778 28.11 -9.48821 -2.44992 93.4032 -6.87808 -8.58224 4.63091 -1.93558 -13.869 -15.0436 1.05643e-005 -39.9586 0 -0 25.5326 0 8.65485e-006 -32.7363 0 149.637 -69.029 147.896 2.3106e-006 -11.385 -7.56517 0 6.44062e-014 -0 6.18079 -8.58223 4.6309 6.91926 -17.5105 15.3002 -1.0381e-005 -39.2652 0 -0 27.9753 0 -0.00334357 -31.3814 0 -127.25 -70.3276 -125.604 -2.72415e-008 -9.94555 -8.16007 0 6.36111e-015 -0 
-63.8838 92.6705 28.11 -9.51374 -2.45765 93.3675 -6.87808 -8.58224 4.63091 -1.94455 -13.8752 -15.0734 1.05643e-005 -39.9586 0 -0 25.5335 0 8.65485e-006 -32.7363 0 149.519 -69.0025 147.77 2.3106e-006 -11.385 -7.56517 0 6.44062e-014 -0 6.18079 -8.58223 4.6309 6.92467 -17.5123 15.3411 -1.0381e-005 -39.2652 0 -0 27.9802 0 -0.00334357 -31.3814 0 -127.287 -70.3039 -125.636 -2.72415e-008 -9.94555 -8.16007 0 6.36111e-015 -0 
-63.8912 92.6603 28.11 -9.55022 -2.45425 93.3499 -6.87808 -8.58224 4.63091 -1.95217 -13.8734 -15.0953 1.05643e-005 -39.9586 0 -0 25.5372 0 8.65485e-006 -32.7363 0 149.437 -68.9778 147.682 2.3106e-006 -11.385 -7.56517 0 6.44062e-014 -0 6.18079 -8.58223 4.6309 6.92365 -17.5002 15.3455 -1.0381e-005 -39.2652 0 -0 27.9781 0 -0.00334357 -31.3814 0 -127.341 -70.3096 -125.69 -2.72415e-008 -9.94555 -8.16007 0 6.36111e-015 -0 
-63.8872 92.6648 28.11 -9.54383 -2.44548 93.3337 -6.87808 -8.58224 4.63091 -1.95762 -13.8654 -15.1123 1.05643e-005 -39.9586 0 -0 25.5413 0 8.65485e-006 -32.7363 0 149.379 -68.9549 147.617 2.3106e-006 -11.385 -7.56517 0 6.44062e-014 -0 6.18079 -8.58223 4.6309 6.9208 -17.4796 15.3321 -1.0381e-005 -39.2652 0 -0 27.973 0 -0.00334357 -31.3814 0 -127.403 -70.3288 -125.754 -2.72415e-008 -9.94555 -8.16007 0 6.36111e-015 -0 
-63.8765 92.6716 28.11 -9.54332 -2.45062 93.3037 -6.87808 -8.58224 4.63091 -1.9617 -13.8574 -15.1224 1.05643e-005 -39.9586 0 -0 25.5462 0 8.65485e-006 -32.7363 0 149.341 -68.9369 147.575 2.3106e-006 -11.385 -7.56517 0 6.44062e-014 -0 6.18079 -8.58223 4.6309 6.91668 -17.4583 15.312 -1.0381e-005 -39.2652 0 -0 27.967 0 -0.00334357 -31.3814 0 -127.459 -70.3521 -125.814 -2.72415e-008 -9.94555 -8.16007 0 6.36111e-015 -0 
-63.8641 92.6784 28.11 -9.50546 -2.4484 93.2995 -6.87808 -8.58224 4.63091 -1.96523 -13.8556 -15.1241 1.05643e-005 -39.9586 0 -0 25.5524 0 8.65485e-006 -32.7363 0 149.325 -68.9266 147.556 2.3106e-006 -11.385 -7.56517 0 6.44062e-014 -0 6.18079 -8.58223 4.6309 6.91185 -17.4443 15.2963 -1.0381e-005 -39.2652 0 -0 27.9619 0 -0.00334357 -31.3814 0 -127.499 -70.3702 -125.856 -2.72415e-008 -9.94555 -8.16007 0 6.36111e-015 -0 
-63.8641 92.6795 28.11 -9.49371 -2.44007 93.2993 -6.87808 -8.58224 4.63091 -1.96906 -13.8669 -15.1108 1.05643e-005 -39.9586 0 -0 25.5618 0 8.65485e-006 -32.7363 0 149.339 -68.9293 147.572 2.3106e-006 -11.385 -7.56517 0 6.44062e-014 -0 6.18079 -8.58223 4.6309 6.90461 -17.4426 15.2875 -1.0381e-005 -39.2652 0 -0 27.9565 0 -0.00334357 -31.3814 0 -127.505 -70.3821 -125.864 -2.72415e-008 -9.94555 -8.16007 0 6.36111e-015 -0 
-63.8635 92.6767 28.11 -9.48693 -2.44003 93.2895 -6.87808 -8.58224 4.63091 -1.97254 -13.8863 -15.0854 1.05643e-005 -39.9586 0 -0 25.5735 0 8.65485e-006 -32.7363 0 149.382 -68.9419 147.618 2.3106e-006 -11.385 -7.56517 0 6.44062e-014 -0 6.18079 -8.58223 4.6309 6.89527 -17.448 15.2798 -1.0381e-005 -39.2652 0 -0 27.9504 0 -0.00334357 -31.3814 0 -127.489 -70.3924 -125.85 -2.72415e-008 -9.94555 -8.16007 0 6.36111e-015 -0 
-63.8629 92.666 28.11 -9.49869 -2.44191 93.2978 -6.87808 -8.58224 4.63091 -1.97421 -13.902 -15.0604 1.05643e-005 -39.9586 0 -0 25.5838 0 8.65485e-006 -32.7363 0 149.43 -68.9549 147.67 2.3106e-006 -11.385 -7.56517 0 6.44062e-014 -0 6.18079 -8.58223 4.6309 6.88739 -17.4529 15.2721 -1.0381e-005 -39.2652 0 -0 27.9467 0 -0.00334357 -31.3814 0 -127.478 -70.3998 -125.84 -2.72415e-008 -9.94555 -8.16007 0 6.36111e-015 -0 
-63.8622 92.6603 28.11 -9.52509 -2.43416 93.2899 -6.87808 -8.58224 4.63091 -1.97265 -13.9024 -15.0485 1.05643e-005 -39.9586 0 -0 25.5892 0 8.65485e-006 -32.7363 0 149.463 -68.9585 147.705 2.3106e-006 -11.385 -7.56517 0 6.44062e-014 -0 6.18079 -8.58223 4.6309 6.88451 -17.4499 15.2632 -1.0381e-005 -39.2652 0 -0 27.9485 0 -0.00334357 -31.3814 0 -127.499 -70.4029 -125.861 -2.72415e-008 -9.94555 -8.16007 0 6.36111e-015 -0 
-63.8612 92.6558 28.11 -9.53949 -2.44627 93.3015 -6.87808 -8.58224 4.63091 -1.96643 -13.8773 -15.0564 1.05643e-005 -39.9586 0 -0 25.5874 0 8.65485e-006 -32.7363 0 149.47 -68.9454 147.71 2.3106e-006 -11.385 -7.56517 0 6.44062e-014 -0 6.18079 -8.58223 4.6309 6.88917 -17.4318 15.2538 -1.0381e-005 -39.2652 0 -0 27.959 0 -0.00334357 -31.3814 0 -127.578 -70.3988 -125.938 -2.72415e-008 -9.94555 -8.16007 0 6.36111e-015 -0 
-63.8601 92.6547 28.11 -9.5238 -2.43943 93.2958 -6.87808 -8.58224 4.63091 -1.95665 -13.8353 -15.0762 1.05643e-005 -39.9586 0 -0 25.5807 0 8.65485e-006 -32.7363 0 149.465 -68.9221 147.7 2.3106e-006 -11.385 -7.56517 0 6.44062e-014 -0 6.18079 -8.58223 4.6309 6.89895 -17.4045 15.2443 -1.0381e-005 -39.2652 0 -0 27.9756 0 -0.00334357 -31.3814 0 -127.694 -70.3891 -126.05 -2.72415e-008 -9.94555 -8.16007 0 6.36111e-015 -0 
-63.8591 92.6592 28.11 -9.47166 -2.46709 93.3121 -6.87808 -8.58224 4.63091 -1.94568 -13.7929 -15.0986 1.05643e-005 -39.9586 0 -0 25.5724 0 8.65485e-006 -32.7363 0 149.459 -68.9008 147.69 2.3106e-006 -11.385 -7.56517 0 6.44062e-014 -0 6.18079 -8.58223 4.6309 6.91001 -17.3793 15.2326 -1.0381e-005 -39.2652 0 -0 27.9933 0 -0.00334357 -31.3814 0 -127.805 -70.3792 -126.158 -2.72415e-008 -9.94555 -8.16007 0 6.36111e-015 -0 
-63.8579 92.6694 28.1057 -9.43733 -2.47861 93.3121 -6.87808 -8.58224 4.63091 -1.93596 -13.7669 -15.114 1.05643e-005 -39.9586 0 -0 25.5654 0 8.65485e-006 -32.7363 0 149.463 -68.8933 147.694 2.3106e-006 -11.385 -7.56517 0 6.44062e-014 -0 6.18079 -8.58223 4.6309 6.9185 -17.3677 15.2172 -1.0381e-005 -39.2652 0 -0 28.0069 0 -0.00334357 -31.3814 0 -127.869 -70.3746 -126.22 -2.72415e-008 -9.94555 -8.16007 0 6.36111e-015 -0 
-63.8565 92.6699 28.1023 -9.42827 -2.48434 93.3527 -6.87808 -8.58224 4.63091 -1.9276 -13.7678 -15.119 1.05643e-005 -39.9586 0 -0 25.561 0 8.65485e-006 -32.7363 0 149.481 -68.9083 147.714 2.3106e-006 -11.385 -7.56517 0 6.44062e-014 -0 6.18079 -8.58223 4.6309 6.92289 -17.3787 15.191 -1.0381e-005 -39.2652 0 -0 28.0146 0 -0.00334357 -31.3814 0 -127.868 -70.3829 -126.221 -2.72415e-008 -9.94555 -8.16007 0 6.36111e-015 -0 
-63.8548 92.662 28.1014 -9.43823 -2.49736 93.3838 -6.87808 -8.58224 4.63091 -1.9195 -13.7848 -15.119 1.05643e-005 -39.9586 0 -0 25.5573 0 8.65485e-006 -32.7363 0 149.505 -68.9374 147.744 2.3106e-006 -11.385 -7.56517 0 6.44062e-014 -0 6.18079 -8.58223 4.6309 6.92537 -17.4043 15.1572 -1.0381e-005 -39.2652 0 -0 28.0193 0 -0.00334357 -31.3814 0 -127.826 -70.3993 -126.182 -2.72415e-008 -9.94555 -8.16007 0 6.36111e-015 -0 
-63.8528 92.6586 28.1013 -9.47263 -2.5163 93.3857 -6.87808 -8.58224 4.63091 -1.9123 -13.802 -15.1177 1.05643e-005 -39.9586 0 -0 25.5531 0 8.65485e-006 -32.7363 0 149.536 -68.9677 147.782 2.3106e-006 -11.385 -7.56517 0 6.44062e-014 -0 6.18079 -8.58223 4.6309 6.92769 -17.4303 15.1289 -1.0381e-005 -39.2652 0 -0 28.0228 0 -0.00334357 -31.3814 0 -127.767 -70.4102 -126.126 -2.72415e-008 -9.94555 -8.16007 0 6.36111e-015 -0 
-63.8454 92.6502 28.1007 -9.48289 -2.52115 93.4122 -6.87808 -8.58224 4.63091 -1.90665 -13.8033 -15.1186 1.05643e-005 -39.9586 0 -0 25.5471 0 8.65485e-006 -32.7363 0 149.576 -68.986 147.826 2.3106e-006 -11.385 -7.56517 0 6.44062e-014 -0 6.18079 -8.58223 4.6309 6.93162 -17.4429 15.1191 -1.0381e-005 -39.2652 0 -0 28.0267 0 -0.00334357 -31.3814 0 -127.712 -70.4022 -126.071 -2.72415e-008 -9.94555 -8.16007 0 6.36111e-015 -0 
-63.8387 92.6524 28.0967 -9.4821 -2.53865 93.4243 -6.87808 -8.58224 4.63091 -1.90353 -13.7786 -15.1245 1.05643e-005 -39.9586 0 -0 25.5382 0 8.65485e-006 -32.7363 0 149.624 -68.9822 147.875 2.3106e-006 -11.385 -7.56517 0 6.44062e-014 -0 6.18079 -8.58223 4.6309 6.93865 -17.4327 15.1397 -1.0381e-005 -39.2652 0 -0 28.0314 0 -0.00334357 -31.3814 0 -127.666 -70.3643 -126.019 -2.72415e-008 -9.94555 -8.16007 0 6.36111e-015 -0 
